<svg xmlns="http://www.w3.org/2000/svg" xmlns:xlink="http://www.w3.org/1999/xlink" width="64" height="64" id="tag"><defs><path id="a" d="M.06 64V.04H64V64z"></path></defs><g fill="none" fill-rule="evenodd"><mask id="b" fill="#fff"><use xlink:href="#a"></use></mask><path fill="#DEDECA" d="M64 32c0 17.673-14.327 32-32 32C14.327 64 0 49.673 0 32 0 14.327 14.327 0 32 0c17.673 0 32 14.327 32 32" mask="url(#b)"></path><path fill="#B3B2A4" d="M28.389 54a2.462 2.462 0 0 1-1.742-.72L12.721 39.348a2.462 2.462 0 0 1 0-3.483L30.86 17.719c.111-.111.969-.701 1.347-.718h15.63c.675 0 1.196.535 1.161 1.224v15.562c0 .474-.619 1.236-.73 1.347L30.13 53.28a2.456 2.456 0 0 1-1.741.72M44 20a2 2 0 1 0 .001 4.001A2 2 0 0 0 44 20"></path><path fill="#B85756" d="M44 22a2 2 0 1 1 .001-4.001A2 2 0 0 1 44 22zm3.837-6.999h-15.63c-.378.017-1.236.607-1.347.718L12.721 33.864a2.464 2.464 0 0 0 0 3.484l13.926 13.931a2.459 2.459 0 0 0 1.742.721c.628 0 1.26-.239 1.741-.721l18.138-18.145c.111-.111.73-.873.73-1.347V16.225a1.144 1.144 0 0 0-1.161-1.224z"></path></g></svg>